<?xml version="1.0" encoding="utf-8"?>
<!-- Created with Inkscape (http://www.inkscape.org/) -->
<svg width="1024" height="1024" version="1.2" viewBox="0 0 1024 1024" xmlns:cc="http://creativecommons.org/ns#" xmlns:dc="http://purl.org/dc/elements/1.1/" xmlns:rdf="http://www.w3.org/1999/02/22-rdf-syntax-ns#" xmlns:xlink="http://www.w3.org/1999/xlink" baseProfile="tiny-ps" xmlns="http://www.w3.org/2000/svg">
  <title>Daniel Wagner e.U.</title>
  <defs>
    <linearGradient id="linearGradient30841" x1="-108" x2="108" gradientUnits="userSpaceOnUse">
      <stop stop-color="#20b2aa" stop-opacity="0" offset="0" />
      <stop stop-color="#008080" offset=".007595" />
      <stop stop-color="#008080" offset=".98734" />
      <stop stop-color="#20b2aa" stop-opacity="0" offset="1" />
    </linearGradient>
  </defs>
  <metadata />
  <g transform="matrix(11.294 0 0 11.294 32 201.41)">
    <g stroke-linecap="round">
      <path d="m12.177 0h72.823v55h-72.823z" fill="url(#linearGradient30841)" stroke-width=".35539" vector-effect="non-scaling-stroke" />
      <path d="m2.8e-7 9.9225h24.274v13.75h-24.274z" fill="#32cd32" stroke-width=".35884" vector-effect="non-scaling-stroke" />
      <path d="m0.12137 31.328h24.274v13.75h-24.274z" fill="#ff7f50" stroke-width=".35884" vector-effect="non-scaling-stroke" />
    </g>
    <g fill="#32cd32" font-family="'Cutive Mono'" font-size="9.872px" font-weight="700" stroke-width=".35884">
      <text transform="scale(.93952 1.0644)" x="30.311338 35.543297" y="17.768553 17.768553">//</text>
      <text transform="scale(.93952 1.0644)" x="46.750023 51.981979 57.21035 62.442307 67.674263 72.906219" y="17.768553 17.768553 17.768553 17.768553 17.768553 17.768553">daniel</text>
    </g>
    <g fill="#ff7f50" font-family="'Cutive Mono'" font-size="9.872px" font-weight="700" stroke-width=".35884">
      <text transform="scale(.93952 1.0644)" x="47.988037 53.219994 58.448364 63.680321 68.912277 74.144234" y="37.000137 37.000137 37.000137 37.000137 37.000137 37.000137">wagner</text>
      <text transform="scale(.93952 1.0644)" x="30.440523 35.672482" y="38.204933 38.204933">&gt;&gt;</text>
    </g>
  </g>
</svg>
