<?xml version="1.0" standalone="no"?>
<!DOCTYPE svg PUBLIC "-//W3C//DTD SVG 20010904//EN"
 "http://www.w3.org/TR/2001/REC-SVG-20010904/DTD/svg10.dtd">
<svg version="1.0" xmlns="http://www.w3.org/2000/svg"
 width="1024.000000pt" height="1024.000000pt" viewBox="0 0 1024.000000 1024.000000"
 preserveAspectRatio="xMidYMid meet">
<metadata>
Created by potrace 1.14, written by Peter Selinger 2001-2017
</metadata>
<g transform="translate(0.000000,1024.000000) scale(0.100000,-0.100000)"
fill="#000000" stroke="none">
<path d="M1736 8218 c3 -4 0 -8 -6 -8 -6 0 -8 -5 -5 -10 4 -6 12 -7 18 -3 7 4
7 0 -1 -10 -8 -9 -10 -22 -6 -28 5 -8 2 -10 -8 -7 -9 4 -15 0 -15 -8 0 -8 6
-13 13 -10 8 3 16 1 19 -5 4 -5 3 -9 -2 -8 -20 3 -23 -3 -12 -23 11 -20 10
-21 -2 -11 -12 10 -15 8 -15 -7 0 -10 3 -17 7 -14 4 2 10 -3 13 -12 8 -21 8
-24 -5 -24 -5 0 -8 4 -5 8 3 5 -1 9 -9 9 -10 0 -10 -5 3 -23 9 -12 21 -19 26
-16 5 3 6 0 2 -6 -4 -6 -14 -9 -24 -6 -12 4 -13 3 -5 -3 7 -5 14 -29 15 -53 2
-25 7 -48 13 -52 6 -5 6 -8 -2 -8 -13 0 -12 -17 2 -40 7 -13 6 -13 -7 -2 -9 7
-14 25 -13 43 1 16 0 27 -3 24 -4 -3 -7 -22 -7 -40 -1 -26 4 -36 18 -41 11 -3
16 -9 11 -13 -13 -9 -37 -54 -26 -47 15 9 21 -15 11 -42 -5 -13 -5 -21 -1 -18
4 2 9 -4 9 -15 1 -10 -3 -19 -8 -19 -6 0 -7 6 -3 13 4 6 3 8 -1 4 -15 -13 -15
-39 0 -33 8 3 17 1 20 -5 4 -5 3 -9 -2 -8 -20 3 -23 -3 -12 -23 11 -20 10 -21
-2 -11 -12 10 -15 8 -15 -7 0 -10 3 -17 7 -14 4 2 10 -3 13 -12 8 -21 8 -24
-5 -24 -5 0 -8 4 -5 8 3 5 -1 9 -9 9 -13 0 -13 -3 -1 -16 7 -9 16 -26 18 -38
5 -16 2 -20 -11 -17 -9 3 -5 -2 9 -10 25 -15 25 -15 3 -16 -13 0 -23 -5 -23
-11 0 -5 5 -7 10 -4 11 7 11 4 12 -52 1 -21 6 -41 12 -45 7 -5 7 -8 -2 -8 -7
0 -11 -4 -7 -9 3 -5 1 -12 -4 -16 -6 -3 -8 4 -6 16 2 12 1 19 -2 15 -4 -4 -8
-15 -10 -26 -3 -18 7 -24 29 -21 11 1 3 -28 -12 -42 -10 -10 -11 -9 -5 3 7 12
6 13 -6 2 -12 -11 -12 -14 1 -22 8 -5 18 -6 22 -4 4 3 8 0 8 -6 0 -6 -8 -10
-17 -8 -13 2 -17 -5 -19 -30 -1 -24 3 -32 12 -28 7 3 16 1 19 -5 4 -5 1 -8 -7
-7 -14 3 -14 -4 -2 -37 l7 -20 -16 20 c-15 20 -15 20 -14 0 2 -19 -10 -19
-695 -20 l-698 0 0 -777 0 -776 701 0 c541 0 704 -3 713 -13 8 -9 6 -10 -9 -5
-19 7 -19 6 -3 -10 12 -13 14 -23 7 -41 -5 -13 -5 -22 -1 -19 4 2 9 -4 9 -15
1 -10 -3 -19 -8 -19 -6 0 -7 6 -3 13 4 6 3 8 -1 4 -15 -13 -15 -39 0 -33 8 3
17 1 20 -5 4 -5 3 -9 -2 -8 -20 3 -23 -3 -12 -23 11 -20 10 -21 -2 -11 -12 10
-15 8 -15 -7 0 -10 3 -17 7 -14 4 2 10 -3 13 -12 8 -21 8 -24 -5 -24 -5 0 -8
4 -5 8 3 5 -1 9 -9 9 -13 0 -13 -3 -1 -16 7 -9 16 -26 18 -38 5 -16 2 -20 -11
-17 -9 3 -5 -2 9 -10 25 -15 25 -15 3 -16 -13 0 -23 -5 -23 -11 0 -5 4 -7 10
-4 11 7 11 4 12 -52 1 -21 6 -41 12 -45 7 -5 7 -8 -2 -8 -7 0 -11 -4 -7 -9 3
-5 1 -12 -4 -16 -6 -3 -8 4 -6 16 2 12 1 19 -2 15 -4 -4 -8 -15 -10 -26 -3
-18 7 -24 29 -21 11 1 3 -28 -12 -42 -10 -10 -11 -9 -5 3 7 12 6 13 -6 2 -12
-11 -12 -14 1 -22 8 -5 18 -6 22 -4 4 3 8 0 8 -6 0 -6 -8 -10 -17 -8 -13 2
-17 -5 -19 -30 -1 -24 3 -32 12 -28 7 3 16 1 19 -5 4 -5 3 -9 -2 -8 -20 3 -23
-3 -12 -23 11 -20 10 -21 -2 -11 -12 10 -15 8 -15 -7 0 -10 3 -17 7 -14 4 2
10 -3 13 -12 8 -21 8 -24 -5 -24 -5 0 -8 4 -5 8 3 5 -1 9 -9 9 -10 0 -10 -5 3
-23 9 -12 21 -19 26 -16 5 3 6 0 2 -7 -4 -6 -11 -9 -16 -6 -5 3 -12 0 -16 -6
-4 -7 -3 -9 3 -6 15 10 22 -49 9 -74 -11 -21 -14 -21 -701 -22 l-690 -2 0
-775 0 -775 685 -1 c781 -2 720 -1 720 -15 0 -6 -6 -9 -13 -6 -8 3 -14 -1 -14
-9 0 -8 6 -13 13 -10 8 3 16 1 19 -5 4 -5 1 -8 -7 -7 -7 2 -11 -4 -9 -12 2 -8
4 -26 4 -40 1 -14 6 -28 12 -32 6 -5 6 -8 -2 -8 -15 0 -14 -102 1 -112 7 -5 7
-8 -2 -8 -7 0 -11 -4 -7 -9 3 -5 1 -12 -4 -16 -6 -3 -8 4 -6 16 2 12 1 19 -2
15 -4 -4 -8 -15 -10 -26 -3 -18 7 -24 29 -21 11 1 3 -28 -12 -42 -10 -10 -11
-9 -5 3 7 12 6 13 -6 2 -12 -11 -12 -14 1 -22 8 -5 18 -6 22 -4 4 3 8 0 8 -6
0 -6 -8 -10 -17 -8 -13 2 -17 -5 -19 -30 -1 -24 3 -32 12 -28 7 3 16 1 19 -5
4 -5 3 -9 -2 -8 -20 3 -23 -3 -12 -23 11 -20 10 -21 -2 -11 -12 10 -15 8 -15
-7 0 -10 3 -17 7 -14 4 2 10 -3 13 -12 8 -21 8 -24 -5 -24 -5 0 -8 4 -5 8 3 5
-1 9 -9 9 -10 0 -10 -5 3 -23 9 -12 21 -19 26 -16 5 3 6 0 2 -6 -4 -6 -14 -9
-24 -6 -12 4 -13 3 -5 -3 7 -5 14 -29 15 -53 2 -25 7 -48 13 -52 6 -5 6 -8 -2
-8 -13 0 -12 -17 2 -40 7 -13 6 -13 -7 -2 -9 7 -14 25 -13 43 1 16 0 27 -3 24
-4 -3 -7 -22 -7 -40 -1 -26 4 -36 18 -41 11 -3 16 -9 11 -13 -13 -9 -37 -54
-26 -47 15 9 21 -15 11 -42 -5 -13 -5 -21 -1 -18 4 2 9 -4 9 -15 1 -10 -3 -19
-8 -19 -6 0 -7 6 -3 12 4 7 3 9 -1 5 -15 -13 -15 -39 0 -33 8 3 17 1 20 -5 4
-5 3 -9 -2 -8 -20 3 -23 -3 -12 -23 11 -20 10 -21 -2 -11 -12 10 -15 8 -15 -7
0 -10 3 -17 7 -14 4 2 10 -3 13 -12 8 -21 8 -24 -5 -24 -5 0 -8 4 -5 8 3 5 -1
9 -9 9 -13 0 -12 -3 1 -18 14 -16 15 -21 3 -35 -12 -15 -11 -16 11 -10 19 6
21 5 10 -3 -8 -6 -11 -11 -6 -11 5 0 3 -7 -4 -16 -8 -8 -9 -14 -4 -13 5 1 14
0 19 -1 31 -8 8113 -4 8108 4 -4 5 1 7 9 4 11 -5 14 0 12 18 -1 13 2 24 8 24
6 0 4 7 -3 17 -11 13 -11 17 -1 20 6 3 12 9 12 14 0 6 -4 8 -9 5 -5 -4 -11 -3
-14 1 -2 5 -3 3 -1 -3 1 -6 -4 -11 -11 -11 -10 0 -11 5 -5 17 5 10 6 20 2 24
-3 4 1 4 10 1 9 -4 19 -1 24 6 4 7 3 10 -4 5 -12 -7 -11 42 2 63 7 10 5 12 -4
6 -8 -5 -11 -3 -8 6 3 8 11 13 17 11 8 -1 9 3 3 15 -4 10 -7 29 -6 43 1 14 -3
31 -10 39 -8 11 -8 15 2 19 9 3 10 7 2 17 -8 9 -8 15 0 20 5 3 10 1 10 -6 0
-7 3 -10 6 -6 3 3 3 11 -1 17 -10 17 -35 -8 -28 -28 3 -9 3 -14 -2 -10 -4 4
-15 2 -24 -5 -14 -10 -14 -10 -3 5 8 9 10 23 6 29 -4 8 -3 9 4 5 14 -9 11 46
-3 56 -15 12 7 10 25 -2 8 -5 10 -10 4 -10 -6 0 -11 -6 -11 -14 0 -8 6 -12 13
-9 6 2 11 10 10 18 -3 24 -29 46 -45 40 -12 -5 -13 -4 -4 6 9 9 18 8 40 -6 17
-12 24 -13 17 -4 -6 8 -10 22 -9 32 2 9 -1 14 -7 11 -6 -4 -9 11 -7 40 2 25
-1 49 -5 53 -4 4 -6 2 -4 -6 1 -7 -4 -16 -12 -18 -9 -3 -11 -1 -4 4 5 4 9 23
8 41 -1 31 9 42 21 22 3 -5 12 -10 18 -9 8 0 8 2 1 5 -6 3 -10 22 -8 45 2 26
-1 39 -8 37 -6 -2 -12 -12 -14 -21 -1 -9 2 -15 7 -11 5 3 9 1 9 -5 0 -12 -20
-25 -21 -14 -1 4 -2 21 -3 36 -1 16 -8 32 -16 37 -9 6 -10 10 -3 10 6 0 15 -4
18 -10 3 -5 11 -10 16 -10 6 0 7 5 4 10 -3 6 -1 10 6 10 9 0 9 3 0 14 -8 10
-9 16 -1 21 5 3 10 1 10 -6 0 -7 3 -9 6 -6 4 4 2 12 -3 19 -5 7 -9 25 -8 40 1
16 -2 25 -8 21 -5 -3 -7 0 -5 8 3 8 11 13 17 11 8 -1 9 3 3 15 -4 10 -7 29 -6
43 1 14 -3 31 -10 39 -8 11 -8 15 2 19 9 3 10 7 2 17 -8 9 -8 15 0 20 5 3 10
1 10 -6 0 -7 3 -10 6 -6 3 3 3 11 -1 17 -10 17 -35 -8 -28 -28 3 -9 3 -14 -2
-10 -4 4 -15 2 -24 -5 -14 -10 -14 -10 -3 5 8 9 10 23 6 29 -4 8 -3 9 4 5 14
-9 11 46 -3 56 -15 12 7 10 25 -2 8 -5 10 -10 4 -10 -6 0 -11 -6 -11 -14 0 -8
6 -12 13 -9 6 2 11 10 10 18 -3 24 -29 46 -45 40 -12 -5 -13 -4 -4 6 9 9 18 8
40 -6 17 -12 24 -13 17 -4 -6 8 -10 22 -9 32 2 9 -1 14 -7 11 -6 -4 -9 11 -7
40 2 25 -1 49 -5 53 -4 4 -6 2 -4 -6 1 -7 -4 -16 -12 -18 -9 -3 -11 -1 -4 4 5
4 9 23 8 41 -1 31 9 42 21 22 3 -5 12 -10 18 -9 8 0 8 2 1 5 -6 3 -10 22 -8
45 2 26 -1 39 -8 37 -6 -2 -12 -12 -14 -21 -1 -9 2 -15 7 -11 5 3 9 1 9 -5 0
-12 -20 -25 -21 -14 -1 4 -2 21 -3 36 -1 16 -8 32 -16 37 -9 6 -10 10 -3 10 6
0 15 -5 18 -10 3 -6 11 -10 16 -10 6 0 7 4 4 10 -3 5 -1 10 6 10 9 0 9 3 0 14
-8 10 -9 16 -1 21 5 3 10 1 10 -6 0 -7 3 -9 6 -6 4 4 2 12 -3 19 -5 7 -9 25
-8 40 1 16 -2 25 -8 21 -5 -3 -7 0 -5 8 3 8 11 13 17 11 8 -1 9 3 3 15 -4 10
-7 29 -6 43 1 14 -3 31 -10 39 -8 11 -8 15 2 19 9 3 10 7 2 17 -8 9 -8 15 0
20 5 3 10 1 10 -6 0 -7 3 -10 6 -6 3 3 3 11 -1 17 -10 17 -35 -8 -28 -28 3 -9
3 -14 -2 -10 -4 4 -15 2 -24 -5 -14 -10 -14 -10 -3 5 8 9 10 23 6 29 -4 8 -3
9 4 5 14 -9 11 46 -3 56 -15 12 7 10 25 -2 8 -5 10 -10 4 -10 -6 0 -11 -6 -11
-14 0 -8 6 -12 13 -9 6 2 11 10 10 18 -3 24 -29 46 -45 40 -12 -5 -13 -4 -4 6
9 9 18 8 40 -6 17 -12 24 -13 17 -4 -6 8 -10 22 -9 32 2 9 -1 14 -7 11 -6 -4
-9 11 -7 40 2 25 -1 49 -5 53 -4 4 -6 2 -4 -6 1 -7 -4 -16 -12 -18 -9 -3 -11
-1 -4 4 5 4 9 23 8 41 -1 31 9 42 21 22 3 -5 12 -10 18 -9 8 0 8 2 1 5 -6 3
-10 22 -8 45 2 26 -1 39 -8 37 -6 -2 -12 -12 -14 -21 -1 -9 2 -15 7 -11 5 3 9
1 9 -5 0 -12 -20 -25 -21 -14 -1 4 -2 21 -3 36 -1 16 -8 32 -16 37 -9 6 -10
10 -3 10 6 0 15 -4 18 -10 3 -6 11 -10 16 -10 6 0 7 4 4 10 -3 5 -1 10 6 10 9
0 9 3 0 14 -8 10 -9 16 -1 21 5 3 10 1 10 -6 0 -7 3 -9 6 -6 4 4 2 12 -3 19
-5 7 -9 25 -8 40 1 16 -2 25 -8 21 -5 -3 -7 0 -5 8 3 8 11 13 17 11 8 -1 9 3
3 15 -4 10 -7 29 -6 43 1 14 -3 31 -10 39 -8 11 -8 15 2 19 9 3 10 7 2 17 -8
9 -8 15 0 20 5 3 10 1 10 -6 0 -7 3 -10 6 -6 3 3 3 11 -1 17 -10 17 -35 -8
-28 -28 3 -9 3 -14 -2 -10 -4 4 -15 2 -24 -5 -14 -10 -14 -10 -3 5 8 9 10 23
6 29 -4 8 -3 9 4 5 14 -9 11 46 -3 56 -15 12 7 10 25 -2 8 -5 10 -10 4 -10 -6
0 -11 -6 -11 -14 0 -8 6 -12 13 -9 6 2 11 10 10 18 -3 24 -29 46 -45 40 -12
-5 -13 -4 -4 6 9 9 18 8 40 -6 17 -12 24 -13 17 -4 -6 8 -10 22 -9 32 2 9 -1
14 -7 11 -6 -4 -9 11 -7 40 2 25 -1 49 -5 53 -4 4 -6 2 -4 -6 1 -7 -4 -16 -12
-18 -9 -3 -11 -1 -4 4 5 4 9 23 8 41 -1 31 9 42 21 22 3 -5 12 -10 18 -9 8 0
8 2 1 5 -6 3 -10 22 -8 45 2 26 -1 39 -8 37 -6 -2 -12 -12 -14 -21 -1 -9 2
-15 7 -11 5 3 9 1 9 -5 0 -12 -20 -25 -21 -14 -1 4 -2 21 -3 36 -1 16 -8 32
-16 37 -9 6 -10 10 -3 10 6 0 15 -4 18 -10 3 -5 11 -10 16 -10 6 0 7 4 4 10
-3 6 -1 10 6 10 9 0 9 3 0 14 -8 10 -9 16 -1 21 5 3 10 1 10 -6 0 -7 3 -9 6
-6 4 4 2 12 -3 19 -5 7 -9 25 -8 40 1 16 -2 25 -8 21 -5 -3 -7 0 -5 8 3 8 11
13 17 11 8 -1 9 3 3 15 -4 10 -7 29 -6 43 1 14 -3 31 -10 39 -8 11 -8 15 2 19
9 3 10 7 2 17 -8 9 -8 15 0 20 5 3 10 1 10 -6 0 -7 3 -10 6 -6 3 3 3 11 -1 17
-10 17 -35 -8 -28 -28 3 -9 3 -14 -2 -10 -4 4 -15 2 -24 -5 -14 -10 -14 -10
-3 5 8 9 10 23 6 29 -4 8 -3 9 4 5 14 -9 11 46 -3 56 -15 12 7 10 25 -2 8 -5
10 -10 4 -10 -6 0 -11 -6 -11 -14 0 -8 6 -12 13 -9 6 2 11 10 10 18 -3 24 -29
46 -45 40 -12 -5 -13 -4 -4 6 9 9 18 8 40 -6 17 -12 24 -13 17 -4 -6 8 -10 22
-9 32 2 9 -1 14 -7 11 -6 -4 -9 11 -7 40 2 25 -1 49 -5 53 -4 4 -6 2 -4 -6 1
-7 -4 -16 -12 -18 -9 -3 -11 -1 -4 4 5 4 9 23 8 41 -1 31 9 42 21 22 3 -5 12
-10 18 -9 8 0 8 2 1 5 -6 3 -10 22 -8 45 2 26 -1 39 -8 37 -6 -2 -12 -12 -14
-21 -1 -9 2 -15 7 -11 5 3 9 1 9 -5 0 -12 -20 -25 -21 -14 -1 4 -2 21 -3 36
-1 16 -8 32 -16 37 -9 6 -10 10 -3 10 6 0 15 -4 18 -10 3 -5 11 -10 16 -10 6
0 7 5 4 10 -3 6 -1 10 6 10 9 0 9 3 0 14 -8 10 -9 16 -1 21 5 3 10 1 10 -6 0
-7 3 -9 6 -6 4 4 2 12 -3 19 -5 7 -9 25 -8 40 1 16 -2 25 -8 21 -5 -3 -7 0 -5
8 3 8 11 13 17 11 8 -1 9 3 3 15 -4 10 -7 29 -6 43 1 14 -3 31 -10 39 -8 11
-8 15 2 19 9 3 10 7 2 17 -8 9 -8 15 0 20 5 3 10 1 10 -6 0 -7 3 -10 6 -6 3 3
3 11 -1 17 -10 17 -35 -8 -28 -28 3 -9 3 -14 -2 -10 -4 4 -15 2 -24 -5 -14
-10 -14 -10 -3 5 8 9 10 23 6 29 -4 8 -3 9 4 5 14 -9 11 46 -3 56 -15 12 7 10
25 -2 8 -5 10 -10 4 -10 -6 0 -11 -6 -11 -14 0 -8 6 -12 13 -9 6 2 11 10 10
18 -3 24 -29 46 -45 40 -12 -5 -13 -4 -4 6 9 9 18 8 40 -6 17 -12 24 -13 17
-4 -6 8 -10 22 -9 32 2 9 -1 14 -7 11 -6 -4 -9 11 -7 40 2 25 -1 49 -5 53 -4
4 -6 2 -4 -6 1 -7 -4 -16 -12 -18 -9 -3 -11 -1 -4 4 5 4 9 23 8 41 -1 31 9 42
21 22 3 -5 12 -10 18 -9 8 0 8 2 1 5 -6 3 -10 22 -8 45 2 26 -1 39 -8 37 -6
-2 -12 -12 -14 -21 -1 -9 2 -15 7 -11 5 3 9 1 9 -5 0 -12 -20 -25 -21 -14 -1
4 -2 21 -3 36 -1 16 -8 32 -16 37 -9 6 -10 10 -3 10 6 0 15 -4 18 -10 3 -5 11
-10 16 -10 6 0 7 4 4 10 -3 6 -1 10 6 10 9 0 9 3 0 14 -8 10 -9 16 -1 21 5 3
10 1 10 -6 0 -7 3 -9 6 -6 4 4 2 12 -3 19 -5 7 -9 25 -8 40 1 16 -2 25 -8 21
-5 -3 -7 0 -5 8 3 8 11 13 17 11 8 -1 9 3 3 15 -4 10 -7 29 -6 43 1 14 -3 31
-10 39 -8 11 -8 15 2 19 9 3 10 7 2 17 -8 9 -8 15 0 20 5 3 10 1 10 -6 0 -7 3
-10 6 -6 3 3 3 11 -1 17 -10 17 -35 -8 -28 -28 3 -9 3 -14 -2 -10 -4 4 -15 2
-24 -5 -14 -10 -14 -10 -3 5 8 9 10 23 6 29 -4 8 -3 9 4 5 14 -9 11 46 -3 56
-15 12 7 10 25 -2 8 -5 10 -10 4 -10 -6 0 -11 -6 -11 -14 0 -8 6 -12 13 -9 6
2 11 10 10 18 -3 24 -29 46 -45 40 -12 -5 -13 -4 -4 6 9 9 18 8 40 -6 17 -12
24 -13 17 -4 -6 8 -10 22 -9 32 2 9 -1 14 -7 11 -6 -4 -9 11 -7 40 2 25 -1 49
-5 53 -4 4 -6 2 -4 -6 1 -7 -4 -16 -12 -18 -9 -3 -11 -1 -4 4 5 4 9 23 8 41
-1 31 9 42 21 22 3 -5 12 -10 18 -9 8 0 8 2 1 5 -6 3 -10 22 -8 45 2 26 -1 39
-8 37 -6 -2 -12 -12 -14 -21 -1 -9 2 -15 7 -11 5 3 9 1 9 -5 0 -12 -20 -25
-21 -14 -1 4 -2 21 -3 36 -1 16 -8 32 -16 37 -9 6 -10 10 -3 10 6 0 15 -4 18
-10 3 -5 11 -10 16 -10 6 0 7 5 4 10 -3 6 -1 10 6 10 9 0 9 3 0 14 -8 10 -9
16 -1 21 5 3 10 1 10 -6 0 -7 3 -9 6 -6 4 4 2 12 -3 19 -5 7 -9 25 -8 40 1 16
-2 25 -8 21 -5 -3 -7 0 -5 8 3 8 11 13 17 11 8 -1 9 3 3 15 -4 10 -7 29 -6 43
1 14 -3 31 -10 39 -8 11 -8 15 2 19 9 3 10 7 2 17 -8 9 -8 15 0 20 5 3 10 1
10 -6 0 -7 3 -10 6 -6 3 3 3 11 -1 17 -10 17 -35 -8 -28 -28 3 -9 3 -14 -2
-10 -4 4 -15 2 -24 -5 -14 -10 -14 -10 -3 5 8 9 10 23 6 29 -4 8 -3 9 4 5 14
-9 11 46 -3 56 -15 12 7 10 25 -2 8 -5 10 -10 4 -10 -6 0 -11 -6 -11 -14 0 -8
6 -12 13 -9 6 2 11 10 10 18 -3 24 -29 46 -45 40 -12 -5 -13 -4 -4 6 9 9 18 8
40 -6 17 -12 24 -13 17 -4 -6 8 -10 22 -9 32 2 9 -1 14 -7 11 -6 -4 -9 11 -7
40 2 25 -1 49 -5 53 -4 4 -6 2 -4 -6 1 -7 -4 -16 -12 -18 -9 -3 -11 -1 -4 4 5
4 9 23 8 41 -1 31 9 42 21 22 3 -5 12 -10 18 -9 8 0 8 2 1 5 -6 3 -10 22 -8
45 2 26 -1 39 -8 37 -6 -2 -12 -12 -14 -21 -1 -9 2 -15 7 -11 5 3 9 1 9 -5 0
-12 -20 -25 -21 -14 -1 4 -2 21 -3 36 -1 16 -8 32 -16 37 -9 6 -10 10 -3 10 6
0 15 -4 18 -10 3 -5 11 -10 16 -10 6 0 7 5 4 10 -3 6 -1 10 6 10 9 0 9 3 0 14
-8 10 -9 16 -1 21 5 3 10 1 10 -6 0 -7 3 -9 6 -6 4 4 2 12 -3 19 -5 7 -9 25
-8 40 1 16 -2 25 -8 21 -5 -3 -7 0 -5 8 3 8 11 13 17 11 8 -1 9 3 3 15 -4 10
-7 29 -6 43 1 14 -3 31 -10 39 -8 11 -8 15 2 19 9 3 10 7 2 17 -8 9 -8 15 0
20 5 3 10 1 10 -6 0 -7 3 -10 6 -6 3 3 3 11 -1 17 -10 17 -35 -8 -28 -28 3 -9
3 -14 -2 -10 -4 4 -15 2 -24 -5 -14 -10 -14 -10 -3 5 8 9 10 23 6 29 -4 8 -3
9 4 5 14 -9 11 46 -3 56 -15 12 7 10 25 -2 8 -5 10 -10 4 -10 -6 0 -11 -6 -11
-14 0 -8 6 -12 13 -9 6 2 11 10 10 18 -3 24 -29 46 -45 40 -12 -5 -13 -4 -4 6
9 9 18 8 40 -6 17 -12 24 -13 17 -4 -6 8 -10 22 -9 32 2 9 -1 14 -7 11 -6 -4
-9 11 -7 40 2 25 -1 49 -5 53 -4 4 -6 2 -4 -6 1 -7 -4 -16 -12 -18 -9 -3 -11
-1 -4 4 5 4 9 23 8 41 -1 31 9 42 21 22 3 -6 12 -10 18 -9 8 0 8 2 1 5 -6 3
-10 22 -8 45 2 26 -1 39 -8 37 -6 -2 -12 -12 -14 -21 -1 -9 2 -15 7 -11 5 3 9
1 9 -5 0 -12 -20 -25 -21 -14 -1 4 -2 21 -3 36 -1 16 -8 32 -16 37 -9 6 -10
10 -3 10 6 0 15 -4 18 -10 3 -5 11 -10 16 -10 6 0 7 5 4 10 -3 6 -1 10 6 10 9
0 9 3 0 14 -8 10 -9 16 -1 21 5 3 10 1 10 -6 0 -7 3 -9 6 -6 4 4 2 12 -3 19
-5 7 -9 25 -8 40 1 16 -2 25 -8 21 -5 -3 -7 0 -5 8 3 8 11 13 17 11 8 -1 9 3
3 15 -4 10 -7 29 -6 43 1 14 -3 31 -10 39 -8 11 -8 15 2 19 10 3 10 7 1 18 -7
8 -9 18 -5 21 4 4 12 1 17 -7 9 -13 10 -13 6 0 -7 26 -32 18 -29 -9 1 -14 -1
-22 -4 -18 -4 4 -14 1 -23 -6 -14 -10 -14 -10 -3 4 7 9 14 34 17 56 l4 39
-4064 0 c-2235 0 -4061 -4 -4059 -8z m8140 -141 c3 -18 0 -27 -8 -27 -9 0 -8
-3 2 -10 13 -8 13 -11 -2 -27 -17 -16 -17 -16 -13 6 3 18 1 22 -13 17 -15 -5
-15 -5 -1 6 10 8 15 25 13 47 -3 39 14 30 22 -12z m-7 -108 c-9 -6 -10 -9 -2
-9 11 0 12 -24 1 -36 -4 -3 -4 -12 -1 -20 8 -22 -5 -16 -18 7 -7 13 -7 19 -1
15 15 -9 23 7 12 24 -10 17 -1 42 12 34 6 -4 5 -10 -3 -15z m6 -339 c3 -6 -1
-7 -9 -4 -18 7 -21 14 -7 14 6 0 13 -4 16 -10z m1 -193 c3 -18 0 -27 -8 -27
-9 0 -8 -3 2 -10 13 -8 13 -11 -2 -27 -17 -16 -17 -16 -13 6 3 18 1 22 -13 17
-15 -5 -15 -5 -1 6 10 8 15 25 13 47 -3 39 14 30 22 -12z m-7 -108 c-9 -6 -10
-9 -2 -9 11 0 12 -24 1 -36 -4 -3 -4 -12 -1 -20 8 -22 -5 -16 -18 7 -7 13 -7
19 -1 15 15 -9 23 7 12 24 -10 17 -1 42 12 34 6 -4 5 -10 -3 -15z m-8133 -124
c1 -8 -2 -15 -6 -15 -5 0 -8 9 -7 20 1 21 10 18 13 -5z m8139 -215 c3 -6 -1
-7 -9 -4 -18 7 -21 14 -7 14 6 0 13 -4 16 -10z m1 -193 c3 -18 0 -27 -8 -27
-9 0 -8 -3 2 -10 13 -8 13 -11 -2 -27 -17 -16 -17 -16 -13 6 3 18 1 22 -13 17
-15 -5 -15 -5 -1 6 10 8 15 25 13 47 -3 39 14 30 22 -12z m-7 -108 c-9 -6 -10
-9 -2 -9 11 0 12 -24 1 -36 -4 -3 -4 -12 -1 -20 8 -22 -5 -16 -18 7 -7 13 -7
19 -1 15 15 -9 23 7 12 24 -10 17 -1 42 12 34 6 -4 5 -10 -3 -15z m6 -339 c3
-6 -1 -7 -9 -4 -18 7 -21 14 -7 14 6 0 13 -4 16 -10z m1 -193 c3 -18 0 -27 -8
-27 -9 0 -8 -3 2 -10 13 -8 13 -11 -2 -27 -17 -16 -17 -16 -13 6 3 18 1 22
-13 17 -15 -5 -15 -5 -1 6 10 8 15 25 13 47 -3 39 14 30 22 -12z m-7 -108 c-9
-6 -10 -9 -2 -9 11 0 12 -24 1 -36 -4 -3 -4 -12 -1 -20 8 -22 -5 -16 -18 7 -7
13 -7 19 -1 15 15 -9 23 7 12 24 -10 17 -1 42 12 34 6 -4 5 -10 -3 -15z m6
-339 c3 -6 -1 -7 -9 -4 -18 7 -21 14 -7 14 6 0 13 -4 16 -10z m1 -193 c3 -18
0 -27 -8 -27 -9 0 -8 -3 2 -10 13 -8 13 -11 -2 -27 -17 -16 -17 -16 -13 6 3
18 1 22 -13 17 -15 -5 -15 -5 -1 6 10 8 15 25 13 47 -3 39 14 30 22 -12z m-7
-108 c-9 -6 -10 -9 -2 -9 11 0 12 -24 1 -36 -4 -3 -4 -12 -1 -20 8 -22 -5 -16
-18 7 -7 13 -7 19 -1 15 15 -9 23 7 12 24 -10 17 -1 42 12 34 6 -4 5 -10 -3
-15z m6 -339 c3 -6 -1 -7 -9 -4 -18 7 -21 14 -7 14 6 0 13 -4 16 -10z m-8139
-105 c1 -8 -2 -15 -6 -15 -5 0 -8 9 -7 20 1 21 10 18 13 -5z m8140 -88 c3 -18
0 -27 -8 -27 -9 0 -8 -3 2 -10 13 -8 13 -11 -2 -27 -17 -16 -17 -16 -13 6 3
18 1 22 -13 17 -15 -5 -15 -5 -1 6 10 8 15 25 13 47 -3 39 14 30 22 -12z m-7
-108 c-9 -6 -10 -9 -2 -9 11 0 12 -24 1 -36 -4 -3 -4 -12 -1 -20 8 -22 -5 -16
-18 7 -7 13 -7 19 -1 15 15 -9 23 7 12 24 -10 17 -1 42 12 34 6 -4 5 -10 -3
-15z m6 -339 c3 -6 -1 -7 -9 -4 -18 7 -21 14 -7 14 6 0 13 -4 16 -10z m1 -193
c3 -18 0 -27 -8 -27 -9 0 -8 -3 2 -10 13 -8 13 -11 -2 -27 -17 -16 -17 -16
-13 6 3 18 1 22 -13 17 -15 -5 -15 -5 -1 6 10 8 15 25 13 47 -3 39 14 30 22
-12z m-7 -108 c-9 -6 -10 -9 -2 -9 11 0 12 -24 1 -36 -4 -3 -4 -12 -1 -20 8
-22 -5 -16 -18 7 -7 13 -7 19 -1 15 15 -9 23 7 12 24 -10 17 -1 42 12 34 6 -4
5 -10 -3 -15z m6 -339 c3 -6 -1 -7 -9 -4 -18 7 -21 14 -7 14 6 0 13 -4 16 -10z
m1 -193 c3 -18 0 -27 -8 -27 -9 0 -8 -3 2 -10 13 -8 13 -11 -2 -27 -17 -16
-17 -16 -13 6 3 18 1 22 -13 17 -15 -5 -15 -5 -1 6 10 8 15 25 13 47 -3 39 14
30 22 -12z m-7 -108 c-9 -6 -10 -9 -2 -9 11 0 12 -24 1 -36 -4 -3 -4 -12 -1
-20 8 -22 -5 -16 -18 7 -7 13 -7 19 -1 15 15 -9 23 7 12 24 -10 17 -1 42 12
34 6 -4 5 -10 -3 -15z m6 -339 c3 -6 -1 -7 -9 -4 -18 7 -21 14 -7 14 6 0 13
-4 16 -10z m1 -193 c3 -18 0 -27 -8 -27 -9 0 -8 -3 2 -10 13 -8 13 -11 -2 -27
-17 -16 -17 -16 -13 6 3 18 1 22 -13 17 -15 -5 -15 -5 -1 6 10 8 15 25 13 47
-3 39 14 30 22 -12z m-7 -108 c-9 -6 -10 -9 -2 -9 11 0 12 -24 1 -36 -4 -3 -4
-12 -1 -20 8 -22 -5 -16 -18 7 -7 13 -7 19 -1 15 15 -9 23 7 12 24 -10 17 -1
42 12 34 6 -4 5 -10 -3 -15z m-8133 -124 c1 -8 -2 -15 -6 -15 -5 0 -8 9 -7 20
1 21 10 18 13 -5z m8139 -215 c3 -6 -1 -7 -9 -4 -18 7 -21 14 -7 14 6 0 13 -4
16 -10z m1 -193 c3 -18 0 -27 -8 -27 -9 0 -9 -3 1 -9 11 -7 12 -13 4 -23 -6
-7 -10 -28 -8 -46 1 -18 -2 -35 -8 -39 -6 -3 -7 -1 -3 5 4 7 1 12 -6 12 -8 0
-9 3 -3 8 6 4 10 24 11 45 0 30 -3 37 -15 32 -14 -4 -14 -4 0 7 10 8 15 25 13
47 -3 39 14 30 22 -12z m-10 -249 c-1 -12 -9 -24 -17 -26 -9 -2 -10 -1 -3 5 6
4 10 18 9 30 -1 12 2 20 7 17 4 -3 6 -15 4 -26z"/>
<path d="M9874 8223 c4 -7 3 -13 -2 -13 -5 0 -9 -6 -9 -14 0 -8 6 -12 13 -9
13 5 13 28 -1 40 -4 4 -5 2 -1 -4z"/>
<path d="M1710 8179 c0 -5 5 -7 10 -4 6 3 10 8 10 11 0 2 -4 4 -10 4 -5 0 -10
-5 -10 -11z"/>
<path d="M9860 7760 c0 -6 7 -10 15 -10 8 0 15 2 15 4 0 2 -7 6 -15 10 -8 3
-15 1 -15 -4z"/>
<path d="M9893 7715 c0 -8 4 -12 9 -9 5 3 6 10 3 15 -9 13 -12 11 -12 -6z"/>
<path d="M1710 7296 c0 -2 7 -7 16 -10 8 -3 12 -2 9 4 -6 10 -25 14 -25 6z"/>
<path d="M9860 7120 c0 -6 7 -10 15 -10 8 0 15 2 15 4 0 2 -7 6 -15 10 -8 3
-15 1 -15 -4z"/>
<path d="M9893 7075 c0 -8 4 -12 9 -9 5 3 6 10 3 15 -9 13 -12 11 -12 -6z"/>
<path d="M9860 6480 c0 -6 7 -10 15 -10 8 0 15 2 15 4 0 2 -7 6 -15 10 -8 3
-15 1 -15 -4z"/>
<path d="M9893 6435 c0 -8 4 -12 9 -9 5 3 6 10 3 15 -9 13 -12 11 -12 -6z"/>
<path d="M9860 5840 c0 -6 7 -10 15 -10 8 0 15 2 15 4 0 2 -7 6 -15 10 -8 3
-15 1 -15 -4z"/>
<path d="M9893 5795 c0 -8 4 -12 9 -9 5 3 6 10 3 15 -9 13 -12 11 -12 -6z"/>
<path d="M9860 5200 c0 -6 7 -10 15 -10 8 0 15 2 15 4 0 2 -7 6 -15 10 -8 3
-15 1 -15 -4z"/>
<path d="M9893 5155 c0 -8 4 -12 9 -9 5 3 6 10 3 15 -9 13 -12 11 -12 -6z"/>
<path d="M1710 5056 c0 -2 7 -7 16 -10 8 -3 12 -2 9 4 -6 10 -25 14 -25 6z"/>
<path d="M9860 4560 c0 -6 7 -10 15 -10 8 0 15 2 15 4 0 2 -7 6 -15 10 -8 3
-15 1 -15 -4z"/>
<path d="M9893 4515 c0 -8 4 -12 9 -9 5 3 6 10 3 15 -9 13 -12 11 -12 -6z"/>
<path d="M9860 3920 c0 -6 7 -10 15 -10 8 0 15 2 15 4 0 2 -7 6 -15 10 -8 3
-15 1 -15 -4z"/>
<path d="M9893 3875 c0 -8 4 -12 9 -9 5 3 6 10 3 15 -9 13 -12 11 -12 -6z"/>
<path d="M9860 3280 c0 -6 7 -10 15 -10 8 0 15 2 15 4 0 2 -7 6 -15 10 -8 3
-15 1 -15 -4z"/>
<path d="M9893 3235 c0 -8 4 -12 9 -9 5 3 6 10 3 15 -9 13 -12 11 -12 -6z"/>
<path d="M1713 3045 c0 -8 4 -12 9 -9 5 3 6 10 3 15 -9 13 -12 11 -12 -6z"/>
<path d="M1715 2989 c-4 -6 -5 -12 -2 -15 2 -3 7 2 10 11 7 17 1 20 -8 4z"/>
<path d="M1710 2816 c0 -2 7 -7 16 -10 8 -3 12 -2 9 4 -6 10 -25 14 -25 6z"/>
<path d="M9860 2640 c0 -6 7 -10 15 -10 8 0 15 2 15 4 0 2 -7 6 -15 10 -8 3
-15 1 -15 -4z"/>
<path d="M9893 2595 c0 -8 4 -12 9 -9 5 3 6 10 3 15 -9 13 -12 11 -12 -6z"/>
<path d="M9893 2195 c0 -8 4 -12 9 -9 5 3 6 10 3 15 -9 13 -12 11 -12 -6z"/>
<path d="M9890 2046 c0 -8 4 -17 9 -20 5 -4 7 3 4 14 -6 23 -13 26 -13 6z"/>
<path d="M1705 2040 c-3 -6 1 -7 9 -4 18 7 21 14 7 14 -6 0 -13 -4 -16 -10z"/>
</g>
</svg>
